<mxfile host="65bd71144e">
    <diagram name="Page-1" id="10a91c8b-09ff-31b1-d368-03940ed4cc9e">
        <mxGraphModel dx="948" dy="667" grid="1" gridSize="10" guides="1" tooltips="1" connect="1" arrows="1" fold="1" page="1" pageScale="1" pageWidth="1100" pageHeight="850" background="none" math="0" shadow="0">
            <root>
                <mxCell id="0"/>
                <mxCell id="1" parent="0"/>
                <mxCell id="Vjuxo-9U-NQkb1ozO8ov-33" style="edgeStyle=none;rounded=0;orthogonalLoop=1;jettySize=auto;html=1;exitX=0;exitY=1;exitDx=0;exitDy=0;entryX=0;entryY=0;entryDx=0;entryDy=0;" parent="1" source="62893188c0fa7362-1" target="Vjuxo-9U-NQkb1ozO8ov-2" edge="1">
                    <mxGeometry relative="1" as="geometry"/>
                </mxCell>
                <mxCell id="Vjuxo-9U-NQkb1ozO8ov-36" style="edgeStyle=none;rounded=0;orthogonalLoop=1;jettySize=auto;html=1;exitX=1;exitY=1;exitDx=0;exitDy=0;entryX=0;entryY=0;entryDx=0;entryDy=0;" parent="1" source="62893188c0fa7362-1" edge="1">
                    <mxGeometry relative="1" as="geometry">
                        <mxPoint x="810" y="140" as="targetPoint"/>
                    </mxGeometry>
                </mxCell>
                <mxCell id="62893188c0fa7362-1" value="13" style="whiteSpace=wrap;html=1;rounded=1;shadow=1;labelBackgroundColor=none;strokeWidth=1;fontFamily=Verdana;fontSize=12;align=center;" parent="1" vertex="1">
                    <mxGeometry x="500" y="10" width="60" height="60" as="geometry"/>
                </mxCell>
                <mxCell id="Vjuxo-9U-NQkb1ozO8ov-26" style="edgeStyle=none;rounded=0;orthogonalLoop=1;jettySize=auto;html=1;exitX=0;exitY=1;exitDx=0;exitDy=0;entryX=1;entryY=0;entryDx=0;entryDy=0;" parent="1" source="Vjuxo-9U-NQkb1ozO8ov-1" target="Vjuxo-9U-NQkb1ozO8ov-11" edge="1">
                    <mxGeometry relative="1" as="geometry"/>
                </mxCell>
                <mxCell id="Vjuxo-9U-NQkb1ozO8ov-28" style="edgeStyle=none;rounded=0;orthogonalLoop=1;jettySize=auto;html=1;exitX=1;exitY=1;exitDx=0;exitDy=0;entryX=0;entryY=0;entryDx=0;entryDy=0;" parent="1" source="Vjuxo-9U-NQkb1ozO8ov-1" target="Vjuxo-9U-NQkb1ozO8ov-14" edge="1">
                    <mxGeometry relative="1" as="geometry"/>
                </mxCell>
                <mxCell id="Vjuxo-9U-NQkb1ozO8ov-1" value="4" style="whiteSpace=wrap;html=1;rounded=1;shadow=1;labelBackgroundColor=none;strokeWidth=1;fontFamily=Verdana;fontSize=12;align=center;" parent="1" vertex="1">
                    <mxGeometry x="250" y="140" width="60" height="60" as="geometry"/>
                </mxCell>
                <mxCell id="Vjuxo-9U-NQkb1ozO8ov-29" style="edgeStyle=none;rounded=0;orthogonalLoop=1;jettySize=auto;html=1;exitX=1;exitY=1;exitDx=0;exitDy=0;entryX=1;entryY=0;entryDx=0;entryDy=0;" parent="1" source="Vjuxo-9U-NQkb1ozO8ov-2" target="Vjuxo-9U-NQkb1ozO8ov-15" edge="1">
                    <mxGeometry relative="1" as="geometry"/>
                </mxCell>
                <mxCell id="Vjuxo-9U-NQkb1ozO8ov-2" value="8" style="whiteSpace=wrap;html=1;rounded=1;shadow=1;labelBackgroundColor=none;strokeWidth=1;fontFamily=Verdana;fontSize=12;align=center;" parent="1" vertex="1">
                    <mxGeometry x="310" y="140" width="60" height="60" as="geometry"/>
                </mxCell>
                <mxCell id="Vjuxo-9U-NQkb1ozO8ov-30" style="edgeStyle=none;rounded=0;orthogonalLoop=1;jettySize=auto;html=1;exitX=0;exitY=1;exitDx=0;exitDy=0;entryX=0;entryY=0;entryDx=0;entryDy=0;" parent="1" source="Vjuxo-9U-NQkb1ozO8ov-3" target="Vjuxo-9U-NQkb1ozO8ov-18" edge="1">
                    <mxGeometry relative="1" as="geometry"/>
                </mxCell>
                <mxCell id="Vjuxo-9U-NQkb1ozO8ov-31" style="edgeStyle=none;rounded=0;orthogonalLoop=1;jettySize=auto;html=1;exitX=1;exitY=1;exitDx=0;exitDy=0;entryX=0;entryY=0;entryDx=0;entryDy=0;" parent="1" source="Vjuxo-9U-NQkb1ozO8ov-3" target="Vjuxo-9U-NQkb1ozO8ov-20" edge="1">
                    <mxGeometry relative="1" as="geometry"/>
                </mxCell>
                <mxCell id="Vjuxo-9U-NQkb1ozO8ov-3" value="17" style="whiteSpace=wrap;html=1;rounded=1;shadow=1;labelBackgroundColor=none;strokeWidth=1;fontFamily=Verdana;fontSize=12;align=center;" parent="1" vertex="1">
                    <mxGeometry x="750" y="140" width="60" height="60" as="geometry"/>
                </mxCell>
                <mxCell id="Vjuxo-9U-NQkb1ozO8ov-32" style="edgeStyle=none;rounded=0;orthogonalLoop=1;jettySize=auto;html=1;exitX=1;exitY=1;exitDx=0;exitDy=0;entryX=0;entryY=0;entryDx=0;entryDy=0;" parent="1" target="Vjuxo-9U-NQkb1ozO8ov-22" edge="1">
                    <mxGeometry relative="1" as="geometry">
                        <mxPoint x="870" y="200" as="sourcePoint"/>
                    </mxGeometry>
                </mxCell>
                <mxCell id="Vjuxo-9U-NQkb1ozO8ov-11" value="1" style="whiteSpace=wrap;html=1;rounded=1;shadow=1;labelBackgroundColor=none;strokeWidth=1;fontFamily=Verdana;fontSize=12;align=center;" parent="1" vertex="1">
                    <mxGeometry x="120" y="320" width="60" height="60" as="geometry"/>
                </mxCell>
                <mxCell id="Vjuxo-9U-NQkb1ozO8ov-12" value="3" style="whiteSpace=wrap;html=1;rounded=1;shadow=1;labelBackgroundColor=none;strokeWidth=1;fontFamily=Verdana;fontSize=12;align=center;" parent="1" vertex="1">
                    <mxGeometry x="180" y="320" width="60" height="60" as="geometry"/>
                </mxCell>
                <mxCell id="Vjuxo-9U-NQkb1ozO8ov-13" value="5" style="whiteSpace=wrap;html=1;rounded=1;shadow=1;labelBackgroundColor=none;strokeWidth=1;fontFamily=Verdana;fontSize=12;align=center;" parent="1" vertex="1">
                    <mxGeometry x="250" y="320" width="60" height="60" as="geometry"/>
                </mxCell>
                <mxCell id="Vjuxo-9U-NQkb1ozO8ov-14" value="6" style="whiteSpace=wrap;html=1;rounded=1;shadow=1;labelBackgroundColor=none;strokeWidth=1;fontFamily=Verdana;fontSize=12;align=center;" parent="1" vertex="1">
                    <mxGeometry x="310" y="320" width="60" height="60" as="geometry"/>
                </mxCell>
                <mxCell id="Vjuxo-9U-NQkb1ozO8ov-15" value="9" style="whiteSpace=wrap;html=1;rounded=1;shadow=1;labelBackgroundColor=none;strokeWidth=1;fontFamily=Verdana;fontSize=12;align=center;" parent="1" vertex="1">
                    <mxGeometry x="380" y="320" width="60" height="60" as="geometry"/>
                </mxCell>
                <mxCell id="Vjuxo-9U-NQkb1ozO8ov-16" value="10" style="whiteSpace=wrap;html=1;rounded=1;shadow=1;labelBackgroundColor=none;strokeWidth=1;fontFamily=Verdana;fontSize=12;align=center;" parent="1" vertex="1">
                    <mxGeometry x="440" y="320" width="60" height="60" as="geometry"/>
                </mxCell>
                <mxCell id="Vjuxo-9U-NQkb1ozO8ov-17" value="15" style="whiteSpace=wrap;html=1;rounded=1;shadow=1;labelBackgroundColor=none;strokeWidth=1;fontFamily=Verdana;fontSize=12;align=center;" parent="1" vertex="1">
                    <mxGeometry x="620" y="320" width="60" height="60" as="geometry"/>
                </mxCell>
                <mxCell id="Vjuxo-9U-NQkb1ozO8ov-18" value="16" style="whiteSpace=wrap;html=1;rounded=1;shadow=1;labelBackgroundColor=none;strokeWidth=1;fontFamily=Verdana;fontSize=12;align=center;" parent="1" vertex="1">
                    <mxGeometry x="680" y="320" width="60" height="60" as="geometry"/>
                </mxCell>
                <mxCell id="Vjuxo-9U-NQkb1ozO8ov-19" value="18" style="whiteSpace=wrap;html=1;rounded=1;shadow=1;labelBackgroundColor=none;strokeWidth=1;fontFamily=Verdana;fontSize=12;align=center;" parent="1" vertex="1">
                    <mxGeometry x="750" y="320" width="60" height="60" as="geometry"/>
                </mxCell>
                <mxCell id="Vjuxo-9U-NQkb1ozO8ov-20" value="19" style="whiteSpace=wrap;html=1;rounded=1;shadow=1;labelBackgroundColor=none;strokeWidth=1;fontFamily=Verdana;fontSize=12;align=center;" parent="1" vertex="1">
                    <mxGeometry x="810" y="320" width="60" height="60" as="geometry"/>
                </mxCell>
                <mxCell id="Vjuxo-9U-NQkb1ozO8ov-22" value="26" style="whiteSpace=wrap;html=1;rounded=1;shadow=1;labelBackgroundColor=none;strokeWidth=1;fontFamily=Verdana;fontSize=12;align=center;" parent="1" vertex="1">
                    <mxGeometry x="940" y="320" width="60" height="60" as="geometry"/>
                </mxCell>
                <mxCell id="Vjuxo-9U-NQkb1ozO8ov-35" value="" style="whiteSpace=wrap;html=1;rounded=1;shadow=1;labelBackgroundColor=none;strokeWidth=1;fontFamily=Verdana;fontSize=12;align=center;" parent="1" vertex="1">
                    <mxGeometry x="560" y="10" width="60" height="60" as="geometry"/>
                </mxCell>
                <mxCell id="Vjuxo-9U-NQkb1ozO8ov-38" value="23" style="whiteSpace=wrap;html=1;rounded=1;shadow=1;labelBackgroundColor=none;strokeWidth=1;fontFamily=Verdana;fontSize=12;align=center;" parent="1" vertex="1">
                    <mxGeometry x="810" y="140" width="60" height="60" as="geometry"/>
                </mxCell>
                <mxCell id="Vjuxo-9U-NQkb1ozO8ov-39" value="23" style="whiteSpace=wrap;html=1;rounded=1;shadow=1;labelBackgroundColor=none;strokeWidth=1;fontFamily=Verdana;fontSize=12;align=center;" parent="1" vertex="1">
                    <mxGeometry x="880" y="320" width="60" height="60" as="geometry"/>
                </mxCell>
                <mxCell id="2" value="2" style="text;html=1;strokeColor=none;fillColor=none;align=center;verticalAlign=middle;whiteSpace=wrap;rounded=0;" vertex="1" parent="1">
                    <mxGeometry x="680" y="150" width="60" height="30" as="geometry"/>
                </mxCell>
                <mxCell id="3" value="3" style="text;html=1;strokeColor=none;fillColor=none;align=center;verticalAlign=middle;whiteSpace=wrap;rounded=0;" vertex="1" parent="1">
                    <mxGeometry x="100" y="280" width="60" height="30" as="geometry"/>
                </mxCell>
                <mxCell id="4" value="4" style="text;html=1;strokeColor=none;fillColor=none;align=center;verticalAlign=middle;whiteSpace=wrap;rounded=0;" vertex="1" parent="1">
                    <mxGeometry x="250" y="280" width="60" height="30" as="geometry"/>
                </mxCell>
                <mxCell id="5" value="5" style="text;html=1;strokeColor=none;fillColor=none;align=center;verticalAlign=middle;whiteSpace=wrap;rounded=0;" vertex="1" parent="1">
                    <mxGeometry x="370" y="280" width="60" height="30" as="geometry"/>
                </mxCell>
                <mxCell id="6" value="6" style="text;html=1;strokeColor=none;fillColor=none;align=center;verticalAlign=middle;whiteSpace=wrap;rounded=0;" vertex="1" parent="1">
                    <mxGeometry x="610" y="280" width="60" height="30" as="geometry"/>
                </mxCell>
                <mxCell id="7" value="7" style="text;html=1;strokeColor=none;fillColor=none;align=center;verticalAlign=middle;whiteSpace=wrap;rounded=0;" vertex="1" parent="1">
                    <mxGeometry x="750" y="280" width="60" height="30" as="geometry"/>
                </mxCell>
                <mxCell id="8" value="8" style="text;html=1;strokeColor=none;fillColor=none;align=center;verticalAlign=middle;whiteSpace=wrap;rounded=0;" vertex="1" parent="1">
                    <mxGeometry x="860" y="280" width="60" height="30" as="geometry"/>
                </mxCell>
                <mxCell id="9" value="0" style="text;html=1;strokeColor=none;fillColor=none;align=center;verticalAlign=middle;whiteSpace=wrap;rounded=0;" vertex="1" parent="1">
                    <mxGeometry x="440" y="10" width="60" height="30" as="geometry"/>
                </mxCell>
            </root>
        </mxGraphModel>
    </diagram>
    <diagram id="NBnyQTOLdYd0MD4QUbP_" name="Page-2">
        <mxGraphModel dx="948" dy="667" grid="1" gridSize="10" guides="1" tooltips="1" connect="1" arrows="1" fold="1" page="1" pageScale="1" pageWidth="827" pageHeight="1169" math="0" shadow="0">
            <root>
                <mxCell id="VoOy8qaxMlYWiSL__IIT-0"/>
                <mxCell id="VoOy8qaxMlYWiSL__IIT-1" parent="VoOy8qaxMlYWiSL__IIT-0"/>
                <mxCell id="nrvds3S_KOZLGk3LnFW5-2" value="&lt;br&gt;" style="whiteSpace=wrap;html=1;rounded=1;shadow=1;labelBackgroundColor=none;strokeWidth=1;fontFamily=Verdana;fontSize=12;align=center;" vertex="1" parent="VoOy8qaxMlYWiSL__IIT-1">
                    <mxGeometry x="500" y="10" width="60" height="60" as="geometry"/>
                </mxCell>
                <mxCell id="nrvds3S_KOZLGk3LnFW5-3" style="edgeStyle=none;rounded=0;orthogonalLoop=1;jettySize=auto;html=1;exitX=0;exitY=1;exitDx=0;exitDy=0;entryX=1;entryY=0;entryDx=0;entryDy=0;" edge="1" parent="VoOy8qaxMlYWiSL__IIT-1" source="nrvds3S_KOZLGk3LnFW5-5" target="nrvds3S_KOZLGk3LnFW5-12">
                    <mxGeometry relative="1" as="geometry"/>
                </mxCell>
                <mxCell id="nrvds3S_KOZLGk3LnFW5-4" style="edgeStyle=none;rounded=0;orthogonalLoop=1;jettySize=auto;html=1;exitX=1;exitY=1;exitDx=0;exitDy=0;entryX=0;entryY=0;entryDx=0;entryDy=0;" edge="1" parent="VoOy8qaxMlYWiSL__IIT-1" source="nrvds3S_KOZLGk3LnFW5-5" target="nrvds3S_KOZLGk3LnFW5-15">
                    <mxGeometry relative="1" as="geometry"/>
                </mxCell>
                <mxCell id="nrvds3S_KOZLGk3LnFW5-5" value="4" style="whiteSpace=wrap;html=1;rounded=1;shadow=1;labelBackgroundColor=none;strokeWidth=1;fontFamily=Verdana;fontSize=12;align=center;" vertex="1" parent="VoOy8qaxMlYWiSL__IIT-1">
                    <mxGeometry x="250" y="140" width="60" height="60" as="geometry"/>
                </mxCell>
                <mxCell id="nrvds3S_KOZLGk3LnFW5-6" style="edgeStyle=none;rounded=0;orthogonalLoop=1;jettySize=auto;html=1;exitX=1;exitY=1;exitDx=0;exitDy=0;entryX=1;entryY=0;entryDx=0;entryDy=0;" edge="1" parent="VoOy8qaxMlYWiSL__IIT-1" source="nrvds3S_KOZLGk3LnFW5-7" target="nrvds3S_KOZLGk3LnFW5-16">
                    <mxGeometry relative="1" as="geometry"/>
                </mxCell>
                <mxCell id="nrvds3S_KOZLGk3LnFW5-7" value="8" style="whiteSpace=wrap;html=1;rounded=1;shadow=1;labelBackgroundColor=none;strokeWidth=1;fontFamily=Verdana;fontSize=12;align=center;" vertex="1" parent="VoOy8qaxMlYWiSL__IIT-1">
                    <mxGeometry x="310" y="140" width="60" height="60" as="geometry"/>
                </mxCell>
                <mxCell id="nrvds3S_KOZLGk3LnFW5-12" value="1" style="whiteSpace=wrap;html=1;rounded=1;shadow=1;labelBackgroundColor=none;strokeWidth=1;fontFamily=Verdana;fontSize=12;align=center;" vertex="1" parent="VoOy8qaxMlYWiSL__IIT-1">
                    <mxGeometry x="120" y="320" width="60" height="60" as="geometry"/>
                </mxCell>
                <mxCell id="nrvds3S_KOZLGk3LnFW5-13" value="3" style="whiteSpace=wrap;html=1;rounded=1;shadow=1;labelBackgroundColor=none;strokeWidth=1;fontFamily=Verdana;fontSize=12;align=center;" vertex="1" parent="VoOy8qaxMlYWiSL__IIT-1">
                    <mxGeometry x="180" y="320" width="60" height="60" as="geometry"/>
                </mxCell>
                <mxCell id="nrvds3S_KOZLGk3LnFW5-14" value="5" style="whiteSpace=wrap;html=1;rounded=1;shadow=1;labelBackgroundColor=none;strokeWidth=1;fontFamily=Verdana;fontSize=12;align=center;" vertex="1" parent="VoOy8qaxMlYWiSL__IIT-1">
                    <mxGeometry x="250" y="320" width="60" height="60" as="geometry"/>
                </mxCell>
                <mxCell id="nrvds3S_KOZLGk3LnFW5-15" value="6" style="whiteSpace=wrap;html=1;rounded=1;shadow=1;labelBackgroundColor=none;strokeWidth=1;fontFamily=Verdana;fontSize=12;align=center;" vertex="1" parent="VoOy8qaxMlYWiSL__IIT-1">
                    <mxGeometry x="310" y="320" width="60" height="60" as="geometry"/>
                </mxCell>
                <mxCell id="nrvds3S_KOZLGk3LnFW5-16" value="9" style="whiteSpace=wrap;html=1;rounded=1;shadow=1;labelBackgroundColor=none;strokeWidth=1;fontFamily=Verdana;fontSize=12;align=center;" vertex="1" parent="VoOy8qaxMlYWiSL__IIT-1">
                    <mxGeometry x="380" y="320" width="60" height="60" as="geometry"/>
                </mxCell>
                <mxCell id="nrvds3S_KOZLGk3LnFW5-17" value="10" style="whiteSpace=wrap;html=1;rounded=1;shadow=1;labelBackgroundColor=none;strokeWidth=1;fontFamily=Verdana;fontSize=12;align=center;" vertex="1" parent="VoOy8qaxMlYWiSL__IIT-1">
                    <mxGeometry x="440" y="320" width="60" height="60" as="geometry"/>
                </mxCell>
                <mxCell id="nrvds3S_KOZLGk3LnFW5-23" value="&lt;br&gt;" style="whiteSpace=wrap;html=1;rounded=1;shadow=1;labelBackgroundColor=none;strokeWidth=1;fontFamily=Verdana;fontSize=12;align=center;" vertex="1" parent="VoOy8qaxMlYWiSL__IIT-1">
                    <mxGeometry x="560" y="10" width="60" height="60" as="geometry"/>
                </mxCell>
                <mxCell id="nrvds3S_KOZLGk3LnFW5-27" value="3" style="text;html=1;strokeColor=none;fillColor=none;align=center;verticalAlign=middle;whiteSpace=wrap;rounded=0;" vertex="1" parent="VoOy8qaxMlYWiSL__IIT-1">
                    <mxGeometry x="100" y="280" width="60" height="30" as="geometry"/>
                </mxCell>
                <mxCell id="nrvds3S_KOZLGk3LnFW5-28" value="4" style="text;html=1;strokeColor=none;fillColor=none;align=center;verticalAlign=middle;whiteSpace=wrap;rounded=0;" vertex="1" parent="VoOy8qaxMlYWiSL__IIT-1">
                    <mxGeometry x="250" y="280" width="60" height="30" as="geometry"/>
                </mxCell>
                <mxCell id="nrvds3S_KOZLGk3LnFW5-29" value="5" style="text;html=1;strokeColor=none;fillColor=none;align=center;verticalAlign=middle;whiteSpace=wrap;rounded=0;" vertex="1" parent="VoOy8qaxMlYWiSL__IIT-1">
                    <mxGeometry x="370" y="280" width="60" height="30" as="geometry"/>
                </mxCell>
            </root>
        </mxGraphModel>
    </diagram>
</mxfile>